<?xml version="1.0" encoding="utf-8"?>
<!-- Generator: Adobe Illustrator 22.1.0, SVG Export Plug-In . SVG Version: 6.00 Build 0)  -->
<svg version="1.1" id="Layer_1" xmlns="http://www.w3.org/2000/svg" xmlns:xlink="http://www.w3.org/1999/xlink" x="0px" y="0px"
	 viewBox="0 0 437.1 189.7" style="enable-background:new 0 0 437.1 189.7;" xml:space="preserve">
<style type="text/css">
	.st0{fill:#BA1222;}
	.st1{clip-path:url(#SVGID_2_);}
	.st2{fill:#EFC8BB;}
	.st3{clip-path:url(#SVGID_4_);}
	.st4{fill:#FFFFFF;}
	.st5{fill:#004A8F;}
	.st6{fill:#B2BBD9;}
	.st7{fill:#8DC642;}
	.st8{fill:#2AA7DF;}
	.st9{fill:#E8168C;}
	.st10{fill:#FBB042;}
</style>
<title>best-place-to-work</title>
<rect x="108.3" y="153.2" class="st0" width="101.4" height="36.5"/>
<g>
	<g>
		<defs>
			<rect id="SVGID_1_" x="109" y="154.1" width="99.9" height="34.7"/>
		</defs>
		<clipPath id="SVGID_2_">
			<use xlink:href="#SVGID_1_"  style="overflow:visible;"/>
		</clipPath>
		<g class="st1">
			<polygon class="st2" points="-63.6,320.3 -63.7,320.2 264.8,-8.3 264.9,-8.2 			"/>
		</g>
	</g>
</g>
<polygon class="st2" points="109.1,154.1 109,154.2 109,154.4 109.4,154.1 "/>
<polygon class="st2" points="115.8,154.1 109,160.9 109,161.1 116.1,154.1 "/>
<polygon class="st2" points="122.5,154.1 109,167.6 109,167.9 122.8,154.1 "/>
<polygon class="st2" points="129.2,154.1 109,174.3 109,174.6 129.5,154.1 "/>
<polygon class="st2" points="135.9,154.1 109,181 109,181.3 136.2,154.1 "/>
<polygon class="st2" points="142.6,154.1 109,187.7 109,188 142.9,154.1 "/>
<polygon class="st2" points="149.4,154.1 114.7,188.8 114.9,188.8 149.6,154.1 "/>
<polygon class="st2" points="156.1,154.1 121.4,188.8 121.6,188.8 156.3,154.1 "/>
<polygon class="st2" points="162.8,154.1 128.1,188.8 128.4,188.8 163,154.1 "/>
<polygon class="st2" points="169.5,154.1 134.8,188.8 135.1,188.8 169.7,154.1 "/>
<polygon class="st2" points="176.2,154.1 141.5,188.8 141.8,188.8 176.4,154.1 "/>
<polygon class="st2" points="182.9,154.1 148.2,188.8 148.5,188.8 183.1,154.1 "/>
<polygon class="st2" points="189.6,154.1 154.9,188.8 155.2,188.8 189.9,154.1 "/>
<polygon class="st2" points="196.3,154.1 161.6,188.8 161.9,188.8 196.6,154.1 "/>
<polygon class="st2" points="203,154.1 168.3,188.8 168.6,188.8 203.3,154.1 "/>
<polygon class="st2" points="175.1,188.8 175.3,188.8 208.9,155.1 208.9,154.9 "/>
<polygon class="st2" points="181.8,188.8 182,188.8 208.9,161.8 208.9,161.6 "/>
<polygon class="st2" points="188.5,188.8 188.7,188.8 208.9,168.5 208.9,168.3 "/>
<polygon class="st2" points="195.2,188.8 195.4,188.8 208.9,175.2 208.9,175 "/>
<polygon class="st2" points="201.9,188.8 202.1,188.8 208.9,181.9 208.9,181.7 "/>
<polygon class="st2" points="208.6,188.8 208.8,188.8 208.9,188.7 208.9,188.4 "/>
<g>
	<g>
		<defs>
			<rect id="SVGID_3_" x="109" y="154.1" width="99.9" height="34.7"/>
		</defs>
		<clipPath id="SVGID_4_">
			<use xlink:href="#SVGID_3_"  style="overflow:visible;"/>
		</clipPath>
		<g class="st3">
			
				<rect x="-57.9" y="229.7" transform="matrix(0.7069 -0.7074 0.7074 0.7069 -111.4562 190.7166)" class="st2" width="464.5" height="0.2"/>
		</g>
	</g>
</g>
<path class="st4" d="M119.8,167.5v-0.4h1.1v0.4c0,1.2,0.4,1.8,1.4,1.8c0.8,0,1.3-0.6,1.3-1.6v-0.2c0-1.3-0.5-1.8-1.7-2.7
	s-2-1.7-2-3.2v-0.1c-0.1-1.2,0.7-2.3,1.9-2.4c0.1,0,0.3,0,0.4,0c1.2-0.1,2.2,0.7,2.3,1.9c0,0.2,0,0.4,0,0.5v0.4h-1.1v-0.4
	c0-1.1-0.5-1.5-1.2-1.5s-1.2,0.4-1.2,1.4v0.1c0,1.1,0.4,1.6,1.6,2.4c1.4,1.1,2.1,1.7,2.1,3.5v0.2c0,1.8-0.9,2.6-2.4,2.6
	C120.6,170.2,119.7,169.2,119.8,167.5"/>
<path class="st4" d="M127.6,166.5h2.1l-1.1-6.4L127.6,166.5z M129.8,167.3h-2.4L127,170h-1.1l2-10.9h1.7l1.9,10.9h-1.1L129.8,167.3z
	"/>
<polygon class="st4" points="133,159.2 134.4,159.2 137.1,167.3 137.1,159.2 138.1,159.2 138.1,170.1 137,170.1 134,161.4 
	134,170.1 133,170.1 "/>
<polygon class="st4" points="142.6,159.2 146.8,159.2 146.8,160.1 143.8,160.1 143.8,164.1 146.2,164.1 146.2,165.1 143.8,165.1 
	143.7,170.1 142.6,170.1 "/>
<path class="st4" d="M150.7,164.1c1,0,1.4-0.5,1.4-1.6v-0.9c0-1.1-0.5-1.5-1.5-1.5h-1.1v4H150.7z M148.4,159.2h2.2
	c1.7,0,2.6,0.8,2.6,2.4v0.9c0.2,1.1-0.5,2.1-1.6,2.3l1.9,5.2h-1.2l-1.8-5.1h-1v5.1h-1.1L148.4,159.2z"/>
<path class="st4" d="M156.4,166.5h2.1l-1.1-6.4L156.4,166.5z M158.7,167.3h-2.4l-0.5,2.7h-1.1l1.9-10.9h1.7l1.9,10.9h-1.1
	L158.7,167.3z"/>
<polygon class="st4" points="161.8,159.2 163.2,159.2 165.9,167.3 165.9,159.2 166.9,159.2 166.9,170.1 165.8,170.1 162.8,161.4 
	162.8,170.1 161.8,170.1 "/>
<path class="st4" d="M168.9,167.1v-4.8c0-2,1.1-3.2,2.8-3.2c1.3-0.1,2.5,0.8,2.6,2.1c0,0.2,0,0.4,0,0.6v0.2h-1.1v-0.1
	c0-1.2-0.5-1.7-1.5-1.7s-1.6,0.8-1.6,2.2v4.8c0,1.4,0.5,2.2,1.6,2.2c0.9,0,1.6-0.5,1.6-1.8v-0.3h1v0.3c0,2-1.1,2.8-2.6,2.8
	C169.9,170.2,168.8,169.1,168.9,167.1"/>
<rect x="176" y="159.2" class="st4" width="1.1" height="10.9"/>
<path class="st4" d="M178.9,167.5v-0.4h1.1v0.4c0,1.2,0.4,1.8,1.4,1.8c0.8,0,1.3-0.6,1.3-1.6v-0.2c0-1.3-0.5-1.8-1.7-2.7
	s-2-1.7-2-3.2v-0.1c-0.1-1.2,0.7-2.3,1.9-2.4c0.1,0,0.3,0,0.4,0c1.2-0.1,2.2,0.7,2.3,1.9c0,0.2,0,0.4,0,0.5v0.4h-1.1v-0.4
	c0-1.1-0.5-1.5-1.2-1.5s-1.2,0.4-1.2,1.4v0.1c0,1.1,0.4,1.6,1.6,2.4c1.4,1.1,2.1,1.7,2.1,3.5v0.2c0,1.8-1,2.6-2.4,2.6
	C179.8,170.2,178.9,169.2,178.9,167.5"/>
<path class="st4" d="M185.5,167.1v-4.8c0-2,1.1-3.2,2.8-3.2c1.3-0.1,2.5,0.8,2.6,2.1c0,0.2,0,0.4,0,0.6v0.2h-1.1v-0.1
	c0-1.2-0.5-1.7-1.5-1.7s-1.6,0.8-1.6,2.2v4.8c0,1.4,0.5,2.2,1.6,2.2c0.9,0,1.6-0.5,1.6-1.8v-0.3h1v0.3c0,2-1.1,2.8-2.6,2.8
	C186.5,170.2,185.4,169.1,185.5,167.1"/>
<path class="st4" d="M197,167.1v-4.9c0-1.3-0.6-2.2-1.7-2.2s-1.7,0.8-1.7,2.2v4.9c0,1.4,0.5,2.2,1.7,2.2S197,168.4,197,167.1
	 M192.5,167v-4.8c0-2,1.1-3.1,2.8-3.1s2.8,1.1,2.8,3.1v4.9c0,2-1.1,3.2-2.8,3.2S192.5,169.1,192.5,167"/>
<path class="st4" d="M116.9,181.9c0.7,0,1-0.3,1-1.3v-0.8c0-1-0.3-1.2-1.1-1.2h-0.5v3.2h0.6V181.9z M116.9,177.1
	c0.7,0,0.9-0.3,0.9-1.1v-0.7c0-0.8-0.3-1-0.9-1h-0.5v2.7L116.9,177.1z M114.1,172.8h3c2,0,2.9,0.8,2.9,2.4v0.8c0.1,1-0.6,1.9-1.6,2
	c1.1,0.1,2,1.1,1.9,2.3v0.7c0,2-1.1,2.7-3.1,2.7h-3.1L114.1,172.8z"/>
<path class="st4" d="M127.9,172.8v8c0,2.1-1.2,3.1-3.2,3.1s-3.2-1-3.2-3.1v-8h2.3v7.9c0,0.9,0.2,1.2,0.8,1.2s0.8-0.3,0.8-1.2v-7.9
	H127.9z"/>
<path class="st4" d="M129.1,180.8v-0.3h2.3v0.3c0,0.9,0.2,1.2,0.8,1.2s0.7-0.3,0.7-1v-0.1c0-1-0.5-1.3-1.5-1.9
	c-1.4-0.9-2.2-1.7-2.2-3.5v-0.1c-0.1-1.4,0.9-2.7,2.4-2.8c0.2,0,0.4,0,0.6,0c1.4-0.2,2.7,0.8,2.9,2.2c0,0.2,0,0.4,0,0.7v0.3h-2.2
	v-0.4c0-0.8-0.3-1-0.7-1s-0.7,0.2-0.7,0.9v0.1c0,0.8,0.3,1.1,1.3,1.7c1.3,0.8,2.4,1.5,2.4,3.6v0.2c0.2,1.5-0.8,2.8-2.3,3
	c-0.2,0-0.5,0-0.7,0C130.3,183.8,129.2,182.9,129.1,180.8"/>
<rect x="136.6" y="172.8" class="st4" width="2.4" height="10.9"/>
<polygon class="st4" points="140.6,172.8 143.1,172.8 144.9,178.6 144.9,172.8 147,172.8 147,183.6 144.8,183.6 142.6,176.9 
	142.6,183.6 140.6,183.6 "/>
<polygon class="st4" points="148.6,172.8 153.5,172.8 153.5,174.6 150.9,174.6 150.9,177 152.9,177 152.9,178.8 150.9,178.8 
	150.9,181.8 153.6,181.8 153.6,183.6 148.6,183.6 "/>
<path class="st4" d="M154.7,180.8v-0.3h2.3v0.3c0,0.9,0.2,1.2,0.8,1.2s0.7-0.3,0.7-1v-0.1c0-1-0.5-1.3-1.5-1.9
	c-1.4-0.9-2.1-1.7-2.1-3.5v-0.1c-0.1-1.4,0.9-2.7,2.4-2.8c0.2,0,0.4,0,0.6,0c1.8,0,2.9,0.9,2.9,2.8v0.3h-2.2v-0.4c0-0.8-0.3-1-0.7-1
	s-0.6,0.2-0.6,0.9v0.1c0,0.8,0.3,1.1,1.3,1.7c1.3,0.8,2.4,1.5,2.4,3.6v0.2c0.2,1.5-0.8,2.8-2.3,3c-0.2,0-0.5,0-0.7,0
	C155.9,183.8,154.8,182.9,154.7,180.8"/>
<path class="st4" d="M161.9,180.8v-0.3h2.3v0.3c0,0.9,0.2,1.2,0.8,1.2s0.7-0.3,0.7-1v-0.1c0-1-0.5-1.3-1.5-1.9
	c-1.4-0.9-2.1-1.7-2.1-3.5v-0.1c-0.1-1.4,1-2.7,2.4-2.8c0.2,0,0.3,0,0.5,0c1.8,0,2.9,0.9,2.9,2.8v0.3h-2.2v-0.4c0-0.8-0.3-1-0.7-1
	s-0.7,0.2-0.7,0.9v0.1c0,0.8,0.3,1.1,1.3,1.7c1.3,0.8,2.4,1.5,2.4,3.6v0.2c0.2,1.5-0.8,2.8-2.3,3c-0.2,0-0.5,0-0.7,0
	C163,183.8,161.9,182.9,161.9,180.8"/>
<polygon class="st4" points="172.9,174.6 171.1,174.6 171.1,172.8 177,172.8 177,174.6 175.2,174.6 175.2,183.6 172.9,183.6 "/>
<rect x="178.3" y="172.8" class="st4" width="2.4" height="10.9"/>
<polygon class="st4" points="182.2,172.8 185.1,172.8 186.1,178.2 187.2,172.8 190.1,172.8 190.1,183.6 187.9,183.6 187.9,176.8 
	186.4,183.6 185.7,183.6 184.2,176.8 184.2,183.6 182.2,183.6 "/>
<polygon class="st4" points="191.7,172.8 196.6,172.8 196.6,174.6 194,174.6 194,177 196.1,177 196.1,178.8 194,178.8 194,181.8 
	196.8,181.8 196.8,183.6 191.7,183.6 "/>
<path class="st4" d="M197.9,180.8v-0.3h2.3v0.3c0,0.9,0.2,1.2,0.8,1.2s0.7-0.3,0.7-1v-0.1c0-1-0.5-1.3-1.5-1.9
	c-1.4-0.9-2.1-1.7-2.1-3.5v-0.1c-0.1-1.4,1-2.7,2.4-2.8c0.2,0,0.3,0,0.5,0c1.8,0,2.9,0.9,2.9,2.8v0.3h-2.2v-0.4c0-0.8-0.3-1-0.7-1
	s-0.7,0.2-0.7,0.9v0.1c0,0.8,0.3,1.1,1.3,1.7c1.3,0.8,2.4,1.5,2.4,3.6v0.2c0.2,1.5-0.8,2.8-2.3,3c-0.2,0-0.5,0-0.7,0
	C199,183.8,197.9,182.9,197.9,180.8"/>
<rect x="227.3" y="153.2" class="st5" width="116.9" height="36.5"/>
<polygon class="st6" points="229.2,154.1 228.3,155 228.3,155.2 229.4,154.1 "/>
<polygon class="st6" points="235.9,154.1 228.3,161.7 228.3,161.9 236.1,154.1 "/>
<polygon class="st6" points="242.6,154.1 228.3,168.4 228.3,168.6 242.8,154.1 "/>
<polygon class="st6" points="249.3,154.1 228.3,175.1 228.3,175.3 249.6,154.1 "/>
<polygon class="st6" points="256,154.1 228.3,181.8 228.3,182.1 256.2,154.1 "/>
<polygon class="st6" points="262.8,154.1 228.3,188.5 228.3,188.8 263,154.1 "/>
<polygon class="st6" points="269.5,154.1 234.8,188.8 235,188.8 269.7,154.1 "/>
<polygon class="st6" points="276.2,154.1 241.5,188.8 241.7,188.8 276.4,154.1 "/>
<polygon class="st6" points="282.9,154.1 248.2,188.8 248.4,188.8 283.1,154.1 "/>
<polygon class="st6" points="289.6,154.1 254.9,188.8 255.1,188.8 289.8,154.1 "/>
<polygon class="st6" points="296.3,154.1 261.6,188.8 261.8,188.8 296.5,154.1 "/>
<polygon class="st6" points="303,154.1 268.3,188.8 268.5,188.8 303.2,154.1 "/>
<polygon class="st6" points="309.7,154.1 275,188.8 275.2,188.8 309.9,154.1 "/>
<polygon class="st6" points="316.4,154.1 281.7,188.8 281.9,188.8 316.6,154.1 "/>
<polygon class="st6" points="323.1,154.1 288.4,188.8 288.7,188.8 323.3,154.1 "/>
<polygon class="st6" points="329.8,154.1 295.2,188.8 295.4,188.8 330,154.1 "/>
<polygon class="st6" points="336.5,154.1 301.9,188.8 302.1,188.8 336.8,154.1 "/>
<polygon class="st6" points="308.6,188.8 308.8,188.8 343.2,154.3 343.2,154.1 "/>
<polygon class="st6" points="315.3,188.8 315.5,188.8 343.2,161 343.2,160.8 "/>
<polygon class="st6" points="322,188.8 322.2,188.8 343.2,167.7 343.2,167.5 "/>
<polygon class="st6" points="328.7,188.8 328.9,188.8 343.2,174.4 343.2,174.2 "/>
<polygon class="st6" points="335.4,188.8 335.6,188.8 343.2,181.2 343.2,180.9 "/>
<polygon class="st6" points="342.1,188.8 342.3,188.8 343.2,187.9 343.2,187.6 "/>
<path class="st4" d="M246.7,167.5v-0.4h1.1v0.4c0,1.2,0.4,1.8,1.4,1.8c0.8,0,1.3-0.6,1.3-1.6v-0.2c0-1.3-0.5-1.8-1.7-2.7
	s-2-1.7-2-3.2l0,0c-0.1-1.2,0.7-2.3,1.9-2.4c0.1,0,0.3,0,0.4,0c1.2-0.1,2.2,0.7,2.3,1.9c0,0.2,0,0.4,0,0.5v0.4h-1.1v-0.4
	c0-1.1-0.5-1.5-1.2-1.5s-1.2,0.4-1.2,1.4v0.1c0,1.1,0.4,1.6,1.6,2.4c1.4,1,2.1,1.7,2.1,3.5v0.2c0,1.8-1,2.6-2.4,2.6
	C247.6,170.2,246.7,169.2,246.7,167.5"/>
<rect x="253.5" y="159.2" class="st4" width="1.1" height="10.9"/>
<polygon class="st4" points="256.8,159.2 257.9,159.2 257.9,169.2 260.9,169.2 260.9,170.1 256.8,170.1 "/>
<rect x="262.6" y="159.2" class="st4" width="1.1" height="10.9"/>
<path class="st4" d="M265.8,167v-4.8c0-2.1,1.1-3.2,2.8-3.2c1.3-0.1,2.5,0.8,2.6,2.1c0,0.2,0,0.4,0,0.6v0.2H270v-0.1
	c0-1.2-0.5-1.7-1.5-1.7s-1.6,0.8-1.6,2.2v4.8c0,1.4,0.5,2.2,1.6,2.2c0.9,0,1.6-0.5,1.6-1.8v-0.3h1v0.3c0.2,1.3-0.7,2.6-2.1,2.8
	c-0.2,0-0.4,0-0.6,0C266.8,170.2,265.7,169.1,265.8,167"/>
<path class="st4" d="M277.3,167v-4.9c0-1.3-0.5-2.2-1.7-2.2s-1.7,0.8-1.7,2.2v4.9c0,1.4,0.5,2.2,1.7,2.2S277.3,168.4,277.3,167
	 M272.8,167v-4.9c0-2,1.1-3.1,2.8-3.1c1.7,0,2.8,1.1,2.8,3.1v4.9c0,2-1.1,3.2-2.8,3.2S272.8,169,272.8,167"/>
<polygon class="st4" points="280.5,159.2 281.8,159.2 284.6,167.3 284.6,159.2 285.6,159.2 285.6,170.1 284.4,170.1 281.5,161.3 
	281.5,170.1 280.5,170.1 "/>
<polygon class="st4" points="294,159.2 295.1,159.2 293.1,170.1 291.6,170.1 289.6,159.2 290.7,159.2 292.4,168.8 "/>
<path class="st4" d="M297.2,166.4h2.2l-1.1-6.4L297.2,166.4z M299.5,167.3h-2.4l-0.5,2.7h-1.1l1.9-10.9h1.7L301,170h-1L299.5,167.3z
	"/>
<polygon class="st4" points="302.7,159.2 303.8,159.2 303.8,169.2 306.8,169.2 306.8,170.1 302.7,170.1 "/>
<polygon class="st4" points="308.5,159.2 309.6,159.2 309.6,169.2 312.6,169.2 312.6,170.1 308.5,170.1 "/>
<polygon class="st4" points="314.2,159.2 318.4,159.2 318.4,160.1 315.4,160.1 315.4,163.8 317.8,163.8 317.8,164.7 315.4,164.7 
	315.4,169.2 318.6,169.2 318.6,170.1 314.2,170.1 "/>
<polygon class="st4" points="321.9,165.3 319.7,159.2 320.9,159.2 322.5,164 324.1,159.2 325.2,159.2 323.1,165.3 323.1,170.1 
	321.9,170.1 "/>
<path class="st4" d="M235.4,181.9c0.7,0,1-0.4,1-1.3v-0.8c0-1-0.3-1.2-1-1.2h-0.6v3.2h0.6V181.9z M235.4,177.1
	c0.7,0,0.9-0.3,0.9-1.1v-0.7c0-0.8-0.3-1-0.9-1h-0.5v2.7L235.4,177.1z M232.6,172.7h3c2,0,2.9,0.8,2.9,2.4v0.8c0.1,1-0.6,1.9-1.6,2
	c1.1,0.1,2,1.1,1.9,2.3v0.7c0,2-1.1,2.7-3.1,2.7h-3.1L232.6,172.7L232.6,172.7z"/>
<path class="st4" d="M246.5,172.7v8c0,2.1-1.2,3.1-3.2,3.1s-3.2-1-3.2-3.1v-8h2.3v7.9c0,0.9,0.2,1.2,0.8,1.2s0.8-0.3,0.8-1.2v-7.9
	H246.5z"/>
<path class="st4" d="M247.7,180.8v-0.4h2.3v0.4c0,0.9,0.2,1.2,0.8,1.2s0.7-0.3,0.7-1v-0.1c0-1-0.5-1.3-1.5-1.9
	c-1.4-0.9-2.2-1.7-2.2-3.5v-0.1c-0.1-1.4,0.9-2.7,2.4-2.8c0.2,0,0.4,0,0.6,0c1.8,0,2.9,0.9,2.9,2.8v0.3h-2.2v-0.4c0-0.8-0.3-1-0.7-1
	s-0.6,0.2-0.6,0.9v0.1c0,0.8,0.3,1.1,1.3,1.7c1.3,0.8,2.4,1.5,2.4,3.6v0.2c0.2,1.5-0.8,2.8-2.3,3c-0.2,0-0.5,0-0.7,0
	C248.9,183.8,247.8,182.9,247.7,180.8"/>
<rect x="255.2" y="172.7" class="st4" width="2.4" height="10.9"/>
<polygon class="st4" points="259.2,172.7 261.8,172.7 263.6,178.6 263.6,172.7 265.6,172.7 265.6,183.6 263.4,183.6 261.2,176.9 
	261.2,183.6 259.2,183.6 "/>
<polygon class="st4" points="267.2,172.7 272.1,172.7 272.1,174.6 269.5,174.6 269.5,177 271.6,177 271.6,178.8 269.5,178.8 
	269.5,181.8 272.3,181.8 272.3,183.6 267.2,183.6 "/>
<path class="st4" d="M273.4,180.8v-0.4h2.3v0.4c0,0.9,0.2,1.2,0.8,1.2s0.7-0.3,0.7-1v-0.1c0-1-0.5-1.3-1.5-1.9
	c-1.4-0.9-2.2-1.7-2.2-3.5v-0.1c-0.1-1.4,0.9-2.7,2.4-2.8c0.2,0,0.4,0,0.6,0c1.4-0.2,2.7,0.8,2.9,2.2c0,0.2,0,0.4,0,0.7v0.3h-2.2
	v-0.4c0-0.8-0.3-1-0.7-1c-0.4,0-0.7,0.2-0.7,0.9v0.1c0,0.8,0.3,1.1,1.3,1.7c1.3,0.8,2.4,1.5,2.4,3.6v0.2c0.2,1.5-0.8,2.8-2.3,3
	c-0.2,0-0.5,0-0.7,0C274.6,183.8,273.5,182.9,273.4,180.8"/>
<path class="st4" d="M280.5,180.8v-0.4h2.3v0.4c0,0.9,0.2,1.2,0.8,1.2s0.7-0.3,0.7-1v-0.1c0-1-0.5-1.3-1.5-1.9
	c-1.4-0.9-2.2-1.7-2.2-3.5v-0.1c-0.1-1.4,0.9-2.7,2.4-2.8c0.2,0,0.4,0,0.6,0c1.8,0,2.9,0.9,2.9,2.8v0.3h-2.2v-0.4c0-0.8-0.3-1-0.7-1
	c-0.4,0-0.6,0.2-0.6,0.9v0.1c0,0.8,0.3,1.1,1.3,1.7c1.3,0.8,2.4,1.5,2.4,3.6v0.2c0.2,1.5-0.8,2.8-2.3,3c-0.2,0-0.5,0-0.7,0
	C281.8,183.8,280.6,182.9,280.5,180.8"/>
<path class="st4" d="M289.9,183.5v-1.8c0.2,0.1,0.5,0.1,0.7,0.1c0.6,0,0.9-0.3,0.9-1v-8h2.4v8.1c0,1.9-1,2.9-2.7,2.9
	C290.7,183.7,290.3,183.6,289.9,183.5"/>
<path class="st4" d="M299.5,180.5v-4.7c0-0.9-0.3-1.4-0.9-1.4s-0.9,0.4-0.9,1.4v4.7c0,1,0.3,1.4,0.9,1.4S299.5,181.4,299.5,180.5
	 M295.3,180.5v-4.7c-0.2-1.6,1-3.1,2.7-3.3c0.2,0,0.4,0,0.6,0c2,0,3.3,1,3.3,3.2v4.6c0.2,1.6-1,3.1-2.7,3.3c-0.2,0-0.5,0-0.7,0
	C296.6,183.7,295.3,182.7,295.3,180.5"/>
<path class="st4" d="M309.8,172.7v8c0,2.1-1.2,3.1-3.2,3.1s-3.2-1-3.2-3.1v-8h2.3v7.9c0,0.9,0.2,1.2,0.8,1.2s0.8-0.3,0.8-1.2v-7.9
	H309.8z"/>
<path class="st4" d="M314.2,177.6c0.6,0,0.9-0.3,0.9-1.1v-1c0-0.7-0.3-1-0.9-1h-0.5v3L314.2,177.6z M311.3,172.7h3
	c2.3,0,3.1,0.9,3.1,2.7v1.1c0.1,0.9-0.3,1.8-1.1,2.2l1.4,4.9h-2.4l-1.2-4.5h-0.4v4.5h-2.3L311.3,172.7z"/>
<polygon class="st4" points="318.9,172.7 321.5,172.7 323.3,178.6 323.3,172.7 325.3,172.7 325.3,183.6 323.1,183.6 321,176.9 
	321,183.6 318.9,183.6 "/>
<path class="st4" d="M329.1,179.8h1.3l-0.6-4.9L329.1,179.8z M330.6,181.4h-1.7l-0.3,2.2h-2.1l1.7-10.9h3.4l1.7,10.9h-2.4
	L330.6,181.4z"/>
<polygon class="st4" points="334.4,172.7 336.7,172.7 336.7,181.7 339.2,181.7 339.2,183.6 334.4,183.6 "/>
<polygon class="st7" points="381.7,0 304.5,0 304.5,77.1 381.7,67.7 "/>
<polygon class="st8" points="298,0 220.8,0 220.8,77 298,67.5 "/>
<polygon class="st9" points="214.4,0 137.2,0 137.2,77.1 214.4,67.7 "/>
<polygon class="st10" points="130.8,0 53.6,0 53.6,77 130.8,67.5 "/>
<path class="st4" d="M96,48.3h-8.2v-8.7H96c2.4,0,4.3,2,4.4,4.4C100.4,46.3,98.5,48.3,96,48.3C96.1,48.3,96.1,48.3,96,48.3
	 M87.9,23.3h8.2c1.9,0.1,3.4,1.8,3.2,3.8c-0.1,1.7-1.5,3.1-3.2,3.2h-8.2V23.3z M106,34.7c4.4-5.5,3.5-13.5-2-17.8
	c-2.3-1.8-5.1-2.8-7.9-2.8H74.5l1.8,9.2h2.4v25h-4.3v0.5l1.7,8.7h20c7.5,0,13.6-6.1,13.6-13.6C109.6,40.6,108.3,37.3,106,34.7"/>
<path class="st4" d="M171.4,18L171.4,18"/>
<path class="st4" d="M184.4,28.5c0,3-1,5.7-8.4,5.7h-6V19.4c0-0.8,0.6-1.4,1.4-1.4l0,0h4.6c7,0,8.4,2.1,8.4,5.5V28.5z M175.8,12.9
	H164c-0.7,0.1-1.2,0.7-1.2,1.3v42.5c0,0.6,0.5,1.2,1.1,1.3h6V41c-0.1-0.8,0.5-1.5,1.3-1.6c0.1,0,0.1,0,0.2,0h4.3
	c13.8,0,15.8-6.8,15.8-10.8v-5C191.6,16.5,186.3,12.9,175.8,12.9"/>
<path class="st4" d="M258.5,51.4c-1.8,1.5-3.2,2.2-4.4,2.3c-0.5,0.1-0.9-0.1-1.2-0.5s-0.5-0.9-0.5-1.5c0-0.9,0.1-1.9,0.4-2.8
	c0.3-1.1,0.9-2.6,1.6-4.4s1.8-4.2,3-7s2.8-6.2,4.6-10.2l8.9-0.6h0.2l0.7-2l-8.9,0.6l5.2-10.9l-8,0.9H260l-4.6,10.5l-5.4,0.4l-0.5,2
	l5.2-0.4c-1.2,2.7-2.3,5.2-3.3,7.2c-1.1,2.3-2,4.3-2.8,6.1c-0.7,1.6-1.3,3.3-1.8,5c-0.4,1.4-0.6,2.9-0.5,4.4c0.1,2,0.8,3.4,2.1,4.1
	c1.1,0.6,2.3,0.9,3.5,0.9h0.6c1.2-0.1,2.3-0.4,3.4-1c1.2-0.6,2.3-1.4,3.4-2.2c1.2-1,2.3-2,3.3-3.2c0.5-0.6,1-1.2,1.5-1.8l-1.7,0.1
	C261,49.1,259.8,50.3,258.5,51.4"/>
<path class="st4" d="M354.1,46c-1.2,5-2.2,5-2.9,5c-0.8,0-1.9,0-3.1-4.6l-2.5-9.3l4.6-17.4l-4.5,2.1l-2,7.7l-2-7.6l-4.5-2.1
	l4.5,17.3l-2.5,9.3c-1.2,4.6-2.3,4.6-3.1,4.6c-0.8,0-1.8,0-2.9-5l-7.3-31.4l-4.5-2.1l8.1,34.6c1,4.2,2.5,8.1,6.6,8.1
	s5.7-3.8,6.7-7.5l0.8-3.1l0.8,3.1c1,3.7,2.5,7.5,6.7,7.5s5.6-3.9,6.6-8.1l8.1-34.7l-4.4,2.1L354.1,46z"/>
<path class="st4" d="M424.4,135.5h3V128l6.2,7.5h3.5l-7-8.4l6.6-7.7h-3.2l-6.1,7.3v-7.3h-3V135.5z M407.4,126.9v-5.1h2.4
	c1.9,0,3,0.6,3,2.5v0.1c0,1.7-1,2.6-3,2.6L407.4,126.9z M404.4,135.5h3V129h1.9l4.2,6.5h3.2l-4.5-6.9c2.1-0.3,3.6-2.2,3.6-4.3v-0.1
	c0-3.3-2.5-4.7-6-4.7h-5.3L404.4,135.5z M388,135.7c4.9,0,8.1-3.5,8.1-8.2v-0.2c0.2-4.3-3.1-7.9-7.4-8.1c-0.2,0-0.4,0-0.7,0
	c-4.3-0.1-8,3.3-8.1,7.6c0,0.2,0,0.4,0,0.6v0.2c-0.2,4.3,3.1,7.9,7.4,8.1C387.6,135.7,387.8,135.7,388,135.7 M388.1,133.3
	c-2.9,0-5-2.3-5-5.8v-0.2c0-3.4,1.9-5.8,5-5.8s5,2.4,5,5.7v0.2C393.1,131,391.2,133.3,388.1,133.3 M357.1,135.5h2.8l3.2-11.7
	l3.2,11.7h3l4-16h-2.8l-2.9,11.8l-3.2-11.8h-2.5l-3.1,11.8l-2.8-11.8h-3L357.1,135.5z M327.1,135.7c4.9,0,8.1-3.5,8.1-8.2v-0.2
	c0.2-4.3-3.1-7.9-7.4-8.1c-0.2,0-0.4,0-0.7,0c-4.3-0.1-8,3.3-8.1,7.6c0,0.2,0,0.4,0,0.6v0.2c-0.2,4.3,3.1,7.9,7.4,8.1
	C326.7,135.7,326.9,135.7,327.1,135.7 M327.2,133.3c-2.9,0-5-2.3-5-5.8v-0.2c0-3.4,1.9-5.8,5-5.8s5,2.4,5,5.7v0.2
	C332.2,131,330.3,133.3,327.2,133.3 M305.3,135.5h3v-13.7h4.5v-2.4h-11.9v2.4h4.5L305.3,135.5z M277,135.7c3.5,0,5.9-2.2,5.9-4.9
	c0-3.2-1.9-4.3-5.7-4.8c-2.8-0.4-3.3-1.1-3.3-2.4s0.9-2.1,2.8-2.1s2.8,0.7,3.1,2.4h2.7c-0.3-3.1-2.4-4.6-5.8-4.6s-5.6,2-5.6,4.6
	c0,3,1.8,4.2,5.6,4.7c2.6,0.4,3.3,1,3.3,2.5s-1.3,2.5-3,2.5c-2.7,0-3.3-1.4-3.6-3h-2.9C270.8,133.5,272.7,135.7,277,135.7
	 M253.2,135.5h10.4v-2.4h-7.4v-4.7h5.6v-2.2h-5.6v-4.4h7v-2.4h-10L253.2,135.5z M238,135.7c3.8,0,6.5-1.9,7-5.8h-2.9
	c-0.2,2.1-2,3.6-4,3.4l0,0c-3,0-4.7-2.1-4.7-5.7v-0.2c0-3.6,1.8-5.8,4.7-5.8c1.9-0.2,3.5,1.2,3.7,3c0,0.1,0,0.1,0,0.2h3
	c-0.4-3.8-3.2-5.6-6.9-5.6c-4.5,0-7.8,3.4-7.8,8.2v0.2C230.1,132.5,232.9,135.7,238,135.7 M216.3,121.9l2.4,7.4H214L216.3,121.9z
	 M209.2,135.5h2.8l1.2-4h6.1l1.3,4h3.1l-5.3-16h-3.9L209.2,135.5z M192.2,135.5h9.8v-2.4h-6.8v-13.6h-3V135.5z M176.4,127.2v-5.4
	h2.2c1.9,0,3,0.7,3,2.6v0.1c0,1.8-1.1,2.7-3,2.7L176.4,127.2z M173.4,135.5h3v-6.1h2.2c3.4,0,5.9-1.5,5.9-4.9v-0.1
	c0-3.4-2.4-4.9-5.9-4.9h-5.1L173.4,135.5z M147.2,135.5h3v-13.7h4.5v-2.4h-11.8v2.4h4.5L147.2,135.5z M130,135.7
	c3.5,0,5.9-2.2,5.9-4.9c0-3.2-2-4.3-5.7-4.8c-2.8-0.4-3.3-1.1-3.3-2.4s0.9-2.1,2.8-2.1c1.9,0,2.8,0.7,3.1,2.4h2.7
	c-0.3-3.1-2.4-4.6-5.8-4.6s-5.6,2-5.6,4.6c0,3,1.8,4.2,5.6,4.7c2.6,0.4,3.3,1,3.3,2.5s-1.2,2.5-3,2.5c-2.7,0-3.4-1.4-3.6-3h-2.9
	C123.8,133.4,125.7,135.6,130,135.7 M106.2,135.4h10.4V133h-7.4v-4.7h5.7v-2.2h-5.6v-4.3h7v-2.4h-10L106.2,135.4z M89.1,126.1v-4.6
	h2.4c1.9,0,2.8,0.6,2.8,2.2v0.1c0,1.6-0.8,2.4-2.7,2.4L89.1,126.1L89.1,126.1z M89.1,133.3v-5.1h2.7c2.2,0,3.1,0.8,3.1,2.5v0.2
	c0,1.7-0.9,2.6-2.9,2.6L89.1,133.3z M86.2,135.4h6.2c3.5,0,5.5-1.5,5.5-4.5v-0.1c0-2.1-1-3.3-3.2-3.8c1.6-0.4,2.6-1.8,2.5-3.4v-0.1
	c0-2.9-1.9-4.2-5.2-4.2h-5.7L86.2,135.4z"/>
<path class="st4" d="M0,134.9l6.1-6.4c1.5-1.6,2.5-3,2.5-4.6c0.1-1.2-0.8-2.3-2-2.5c-0.1,0-0.3,0-0.4,0c-1.6,0-2.6,0.9-2.9,3.2H0.5
	c0.2-3.5,2.3-5.6,5.7-5.6s5.3,1.9,5.3,4.8c0,2.1-1.2,3.9-3.2,5.8l-3.5,3.5h6.9v2.3H0V134.9z"/>
<path class="st4" d="M19.1,127.8V127c0-4.9,2.7-7.9,6.8-7.9s6.8,3,6.8,7.9v0.8c0,4.9-2.5,8-6.8,8S19.1,132.7,19.1,127.8z
	 M29.6,127.7v-0.8c0-3.4-1.3-5.5-3.7-5.5s-3.8,1.9-3.8,5.5v0.8c0,3.7,1.4,5.5,3.8,5.5S29.6,131.4,29.6,127.7L29.6,127.7z"/>
<path class="st4" d="M43.7,122.3l-3.4,2.3V122l3.8-2.7h2.7v16.2h-3L43.7,122.3z"/>
<path class="st4" d="M55.4,131.2c0-2.1,1.2-3.5,3-4.1c-1.5-0.6-2.4-1.8-2.4-3.4c0-2.7,2.6-4.3,5.4-4.3c2.9,0,5.4,1.6,5.4,4.3
	c0,1.7-1,2.8-2.4,3.4c1.9,0.7,3,2.1,3,4.1c0,3.2-2.8,4.9-6,4.9C58.2,136,55.4,134.3,55.4,131.2z M64.4,130.9c0-1.8-1.3-2.8-3-2.8
	c-1.7,0-3.1,1-3.1,2.8c0,1.8,1.4,2.8,3,2.8C63.1,133.7,64.4,132.7,64.4,130.9z M64,123.8c0-1.4-1.1-2.3-2.6-2.3
	c-1.4,0-2.6,0.9-2.6,2.3c0,1.5,1.2,2.3,2.6,2.3C62.9,126.2,64,125.3,64,123.8z"/>
</svg>
